<svg transform="scale(1)" version="1.1" id="Wy3kx1nHXi" xmlns="http://www.w3.org/2000/svg" xmlns:xlink="http://www.w3.org/1999/xlink" x="0px" y="0px" viewBox="0 0 500 500" xml:space="preserve" class="pbimage_pbimage__wrapper__image__0LEis false"><title>Data Settings</title><style type="text/css"> .st0{fill:#FF9F9F;} .st1{fill:url(#SVGID_1_-Wy3kx1nHXi);} .st2{fill:url(#SVGID_00000150810844803477994260000012064129240016598955_-Wy3kx1nHXi);} .st3{fill:url(#SVGID_00000016037217208017825660000004415954015717202870_-Wy3kx1nHXi);} .st4{fill:#E36953;} .st5{fill:#FFFFFF;} .st6{opacity:0.1;fill:#053855;enable-background:new;} .st7{fill:#BABABC;} .st8{fill:#5FAD00;} .st9{fill:#FFE427;} .st10{fill:#053855;} .st11{fill:#68E1FD;} .st12{opacity:0.44;fill:#053855;enable-background:new;} .st13{fill:#EEAD97;} .st14{fill:#744122;}
 .st14{fill:#744122;}
 .st13{fill:#EEAD97;}
 .st12{fill:#053855;}
 .st11{fill:#68E1FD;}
 .st10{fill:#053855;}
 .st9{fill:#FFE427;}
 .st8{fill:#5FAD00;}
 .st7{fill:#BABABC;}
 .st6{fill:#053855;}
 .st5{fill:#FFFFFF;}
 .st4{fill:#E36953;}
 .st0{fill:#FF9F9F;}</style><g id="background"><path class="st0" d="M241.3,389L16.1,255.9c-7.2-4-13.3-10.6-6.3-15l225.9-130.2c3.4-2.1,8.5-3.5,12-1.5l236.3,137.2
		c7.2,4.2,8.5,15.8,1.3,20L270.9,388.7C261.8,394.1,250.5,394.2,241.3,389z" fill="#FF9F9F"></path><linearGradient id="SVGID_1_-Wy3kx1nHXi" gradientUnits="userSpaceOnUse" x1="332.1775" y1="158.3542" x2="278.9884" y2="249.5326" gradientTransform="matrix(1 0 0 -1 0 502)"><stop offset="0" style="stop-color: rgb(255, 159, 159);"></stop><stop offset="1" style="stop-color: rgb(227, 105, 83);"></stop></linearGradient><polyline class="st1" points="245.5,278.4 343.7,336.9 368.3,322.3 268.9,258.4 	"></polyline><linearGradient id="SVGID_00000081610057641969313980000006304718491196523950_-Wy3kx1nHXi" gradientUnits="userSpaceOnUse" x1="255.7638" y1="116.4823" x2="220.8757" y2="176.299" gradientTransform="matrix(1 0 0 -1 0 502)"><stop offset="0" style="stop-color: rgb(255, 159, 159);"></stop><stop offset="1" style="stop-color: rgb(227, 105, 83);"></stop></linearGradient><polyline points="195.7,346.8 256.2,385.2 
		282.9,367.8 219.1,326.8 	" style="fill: url(&quot;#SVGID_00000081610057641969313980000006304718491196523950_-Wy3kx1nHXi&quot;);"></polyline><linearGradient id="SVGID_00000131361071552822557900000005718180916818658443_-Wy3kx1nHXi" gradientUnits="userSpaceOnUse" x1="123.9224" y1="216.8058" x2="103.3776" y2="252.0242" gradientTransform="matrix(1 0 0 -1 0 502)"><stop offset="0" style="stop-color: rgb(255, 159, 159);"></stop><stop offset="1" style="stop-color: rgb(227, 105, 83);"></stop></linearGradient><polyline points="76.9,265.4 115.3,287.6 
		150.4,269.8 111.7,245.7 	" style="fill: url(&quot;#SVGID_00000131361071552822557900000005718180916818658443_-Wy3kx1nHXi&quot;);"></polyline></g><g id="phone"><polyline class="st4" points="237,37.3 227.9,41.3 236.7,45.2 238.8,40.7 	"></polyline><path class="st4" d="M319.8,304.3l-75.5-44c-6.2-3.6-10-10.2-10-17.4l-2.4-199.8c0-5.2,8.1-7.9,12.6-5.2L322.6,84
		c3.9,2.3,6.3,6.5,6.4,11.1V299c0,3.4-2.8,6.1-6.1,6.1C321.8,305.1,320.7,304.8,319.8,304.3z"></path><polyline class="st4" points="325.9,304.3 316,309.5 317.1,302.7 324,301.4 	"></polyline><path class="st5" d="M310.4,309.3l-75.5-44c-6.2-3.6-10-10.2-10-17.4V46.2c0-2.9,2.4-5.3,5.3-5.3c1,0,1.9,0.3,2.7,0.7L313.2,89
		c3.9,2.3,6.4,6.6,6.4,11.1V304c0,3.4-2.7,6.1-6.1,6.1C312.4,310.1,311.3,309.8,310.4,309.3z"></path><path class="st6" d="M310.4,309.3l-75.5-44c-6.2-3.6-10-10.2-10-17.4V46.2c0-2.9,2.4-5.3,5.3-5.3c1,0,1.9,0.3,2.7,0.7L313.2,89
		c3.9,2.3,6.4,6.6,6.4,11.1V304c0,3.4-2.7,6.1-6.1,6.1C312.4,310.1,311.3,309.8,310.4,309.3z"></path><polygon class="st5" points="314.8,112.4 228.8,63.1 228.8,239.6 314.8,289.3 	"></polygon><ellipse class="st7" transform="matrix(0.9727 -0.2323 0.2323 0.9727 -55.9056 68.6917)" cx="263.8" cy="271.8" rx="4" ry="5.4"></ellipse><path class="st7" d="M260.5,71.6L260.5,71.6c0,0.7,0.4,1.3,1,1.7l16.6,9.6c0.9,0.5,2.1,0.2,2.6-0.7c0.2-0.3,0.2-0.6,0.2-0.9v-0.4
		c0-0.7-0.4-1.3-1-1.7l-16.6-9.2c-0.9-0.5-2.1-0.2-2.6,0.8C260.6,71,260.5,71.3,260.5,71.6z"></path><ellipse class="st7" transform="matrix(0.9378 -0.3471 0.3471 0.9378 -7.3632 91.9164)" cx="252.9" cy="66.5" rx="1.9" ry="2.6"></ellipse><polygon class="st8" points="288.8,182.6 288.8,234.8 278,228.5 277.9,176.3 	"></polygon><polygon class="st0" points="270.6,163.4 270.8,224.7 259.5,218.1 259.5,157.1 	"></polygon><polygon class="st9" points="252.3,146.8 252.5,214.5 242.4,208.6 242.4,140.7 	"></polygon><path class="st9" d="M287.8,241.2L287.8,241.2c0,1.4-1.1,2.6-2.5,2.6c-0.4,0-0.9-0.1-1.2-0.3l-46.5-26.6c-0.8-0.4-1.3-1.3-1.3-2.2
		l0,0c0-1.4,1.1-2.5,2.5-2.5c0.4,0,0.9,0.1,1.2,0.3l46.5,26.5C287.3,239.5,287.8,240.3,287.8,241.2z"></path><path class="st9" d="M298,139.4v18.8c0,1.5-1.2,2.6-2.6,2.7c-0.5,0-1-0.1-1.4-0.4l-51.2-29.5c-0.8-0.5-1.3-1.3-1.3-2.3v-18.8
		c0-1.5,1.2-2.6,2.6-2.7c0.5,0,1,0.1,1.4,0.4l51.2,29.5C297.5,137.5,298,138.4,298,139.4z"></path><ellipse class="st5" transform="matrix(0.9531 -0.3025 0.3025 0.9531 -30.1604 93.4301)" cx="286.5" cy="144.1" rx="6.7" ry="8.3"></ellipse><path class="st10" d="M278.3,132.6l-26.2-14.7l-3.7-2c-1.1-0.6-2,1-0.9,1.6l26.3,14.7l3.7,2c0.5,0.2,1,0.1,1.3-0.4
		C278.9,133.4,278.7,132.9,278.3,132.6L278.3,132.6z"></path><path class="st10" d="M277.2,139.9l-16.3-9.1l-2.3-1.3c-0.5-0.2-1-0.1-1.3,0.4c-0.2,0.4-0.1,1,0.3,1.2l16.3,9.1l2.3,1.3
		c0.5,0.2,1,0.1,1.3-0.4C277.7,140.7,277.6,140.2,277.2,139.9L277.2,139.9z"></path></g><g id="gear"><path class="st11" d="M360.6,162.1c-0.1,0.3-0.8,2.8-1.3,2.3s-3.3,0.7-3.3,0.7l-7.8-9.9l1-3.2h7"></path><path class="st11" d="M322.9,119.3l-0.7-2.6l-8.2-4.5v-14c0-0.3,7.9,4.7,7.9,4.7l0.4-0.8c0.5-2.1,1.3-4.2,2.4-6l-5.8-10.7l7.3-5.6
		l5.5,11h0c2-0.5,4.1-0.4,6,0.1V80.5l10.5,5.8v11c2.1,2,3.9,4.1,5.6,6.4l6.3-4l7.1,13.6l-5.7,4.5l0.5,2.3c0.7,2.4,1.3,4.9,1.8,7.3
		l8.4,4.6v13.9l-8-4.8c-0.3,2.5-1.2,5-2.6,7.1l6,10.2l-7.6,5.8l-5.4-10.5h-6.7v10.5l-10-6.1V148c-2.3-2.3-4.3-4.8-6-7.5l-6,4.1
		l-7.3-13.9l6-4.5l-0.6-2.1C323.7,122.5,323.2,120.9,322.9,119.3z"></path><polyline class="st11" points="303.8,104.1 313.1,98.5 315.4,101.9 311.8,109.5 	"></polyline><polyline class="st11" points="316,150.4 322.9,147.6 322.9,143.4 	"></polyline><polygon class="st11" points="338.1,170.2 348.1,164.4 345.6,156.7 336.5,159.4 	"></polygon><polygon class="st11" points="326.2,79.9 316.1,85.7 321.6,96.8 327.7,96.9 329.1,85.7 	"></polygon><ellipse class="st11" transform="matrix(0.9307 -0.3657 0.3657 0.9307 -23.8117 130.4198)" cx="332.4" cy="128.1" rx="4.5" ry="7.8"></ellipse><polygon class="st11" points="348.3,86.3 338.2,92.1 327.7,86.3 337.8,80.5 	"></polygon><polygon class="st11" points="350.1,105.6 360.2,99.8 367.4,113.4 357.3,119.2 	"></polygon><polygon class="st11" points="367.8,158.6 357.7,164.4 350.1,170.2 360.2,164.4 	"></polygon><path class="st12" d="M360.6,162.1c-0.1,0.3-0.8,2.8-1.3,2.3s-3.3,0.7-3.3,0.7l-7.8-9.9l1-3.2h7"></path><path class="st11" d="M322.9,119.3l-0.7-2.6l-8.2-4.5v-14c0-0.3,7.9,4.7,7.9,4.7l0.4-0.8c0.5-2.1,1.3-4.2,2.4-6l-5.8-10.7l7.3-5.6
		l5.5,11h0c2-0.5,4.1-0.4,6,0.1V80.5l10.5,5.8v11c2.1,2,3.9,4.1,5.6,6.4l6.3-4l7.1,13.6l-5.7,4.5l0.5,2.3c0.7,2.4,1.3,4.9,1.8,7.3
		l8.4,4.6v13.9l-8-4.8c-0.3,2.5-1.2,5-2.6,7.1l6,10.2l-7.6,5.8l-5.4-10.5h-6.7v10.5l-10-6.1V148c-2.3-2.3-4.3-4.8-6-7.5l-6,4.1
		l-7.3-13.9l6-4.5l-0.6-2.1C323.7,122.5,323.2,120.9,322.9,119.3z"></path><polyline class="st12" points="303.8,104.1 313.1,98.5 315.4,101.9 311.8,109.5 	"></polyline><polyline class="st11" points="316,150.4 322.9,147.6 322.9,143.4 	"></polyline><polygon class="st11" points="338.1,170.2 348.1,164.4 345.6,156.7 336.5,159.4 	"></polygon><polygon class="st11" points="326.2,79.9 316.1,85.7 321.6,96.8 327.7,96.9 329.1,85.7 	"></polygon><ellipse class="st11" transform="matrix(0.9307 -0.3657 0.3657 0.9307 -23.8117 130.4198)" cx="332.4" cy="128.1" rx="4.5" ry="7.8"></ellipse><polygon class="st11" points="350.1,105.6 360.2,99.8 367.4,113.4 357.3,119.2 	"></polygon><polygon class="st11" points="367.8,158.6 357.7,164.4 350.1,170.2 360.2,164.4 	"></polygon><path class="st12" d="M322.9,119.3l-0.7-2.6l-8.2-4.5v-14c0-0.3,7.9,4.7,7.9,4.7l0.4-0.8c0.5-2.1,1.3-4.2,2.4-6l-5.8-10.7l7.3-5.6
		l5.5,11h0c2-0.5,4.1-0.4,6,0.1V80.5l10.5,5.8v11c2.1,2,3.9,4.1,5.6,6.4l6.3-4l7.1,13.6l-5.7,4.5l0.5,2.3c0.7,2.4,1.3,4.9,1.8,7.3
		l8.4,4.6v13.9l-8-4.8c-0.3,2.5-1.2,5-2.6,7.1l6,10.2l-7.6,5.8l-5.4-10.5h-6.7v10.5l-10-6.1V148c-2.3-2.3-4.3-4.8-6-7.5l-6,4.1
		l-7.3-13.9l6-4.5l-0.6-2.1C323.7,122.5,323.2,120.9,322.9,119.3z"></path><polyline class="st6" points="316,150.4 322.9,147.6 322.9,143.4 	"></polyline><polygon class="st6" points="338.1,170.2 348.1,164.4 345.6,156.7 336.5,159.4 	"></polygon><ellipse class="st6" transform="matrix(0.9307 -0.3657 0.3657 0.9307 -23.8117 130.4198)" cx="332.4" cy="128.1" rx="4.5" ry="7.8"></ellipse><polygon class="st6" points="350.1,105.6 360.2,99.8 367.4,113.4 357.3,119.2 	"></polygon><polygon class="st6" points="367.8,158.6 357.7,164.4 350.1,170.2 360.2,164.4 	"></polygon><polyline class="st6" points="316,150.4 322.9,147.6 322.9,143.4 	"></polyline><polygon class="st12" points="338.1,170.2 348.1,164.4 345.6,156.7 336.5,159.4 	"></polygon><path class="st11" d="M312.8,125.2l-0.7-2.6l-8.2-4.5v-14c0-0.3,7.9,4.7,7.9,4.7l0.4-0.8c0.5-2.1,1.3-4.2,2.4-6l-5.8-10.7l7.3-5.6
		l5.5,11l0,0c2-0.5,4.1-0.4,6.1,0.1V86.3l10.5,5.8v11c2.1,2,3.9,4.1,5.6,6.4l6.3-4.1l7.1,13.6l-5.7,4.5l0.5,2.3
		c0.7,2.4,1.3,4.9,1.8,7.4l8.4,4.6v13.9l-8-4.8c-0.3,2.5-1.2,5-2.6,7.1l6,10.2l-7.6,5.8l-5.4-10.5H338v10.5l-10-6.1v-10.3
		c-2.3-2.3-4.3-4.8-6-7.5l-6,4.1l-7.3-13.9l6-4.5l-0.6-2.1C313.6,128.4,313.1,126.7,312.8,125.2z"></path><ellipse class="st12" transform="matrix(0.9307 -0.3657 0.3657 0.9307 -23.8117 130.4198)" cx="332.4" cy="128.1" rx="4.5" ry="7.8"></ellipse><polygon class="st12" points="367.8,158.6 357.7,164.4 350.1,170.2 360.2,164.4 	"></polygon><polygon class="st11" points="348.3,86.3 338.2,92.1 327.7,86.3 337.8,80.5 	"></polygon><polygon class="st12" points="348.3,86.3 338.2,92.1 327.7,86.3 337.8,80.5 	"></polygon><polygon class="st11" points="372.4,132.1 362.3,137.9 362.3,151.9 372.4,146.1 	"></polygon><polygon class="st12" points="372.4,132.1 362.3,137.9 362.3,151.9 372.4,146.1 	"></polygon><path class="st11" d="M388.5,242.1c-0.1,0.2-0.6,2.3-1.1,1.8s-2.7,0.5-2.7,0.5l-6.3-8l0.8-2.6h5.7"></path><path class="st11" d="M358,207.5l-0.6-2.1l-6.6-3.6v-11.3c0-0.2,6.4,3.8,6.4,3.8l0.3-0.6c0.4-1.7,1-3.4,2-4.9l-4.7-8.6l5.9-4.5
		l4.4,8.9l0,0c1.6-0.4,3.3-0.3,4.9,0.1v-8.6l8.5,4.7v8.9c1.7,1.6,3.2,3.3,4.5,5.2l5.1-3.3l5.8,11l-4.6,3.6l0.4,1.9
		c0.6,2,1.1,3.9,1.4,5.9l6.8,3.8v11.3l-6.5-3.9c-0.3,2-1,4-2.1,5.8l4.9,8.3l-6.1,4.7l-4.3-8.5h-5.4v8.5l-8.1-4.9v-8.4
		c-1.9-1.8-3.5-3.9-4.9-6.1l-4.9,3.4l-5.9-11.2l4.9-3.6l-0.5-1.7C358.6,210.1,358.3,208.8,358,207.5z"></path><polyline class="st11" points="342.6,195.2 350.1,190.7 352,193.4 349.1,199.5 	"></polyline><polyline class="st11" points="352.4,232.7 358,230.4 358,227 	"></polyline><polygon class="st11" points="370.3,248.7 378.4,244 376.4,237.8 369,240 	"></polygon><polygon class="st11" points="360.7,175.6 352.5,180.3 357,189.2 361.9,189.3 363,180.3 	"></polygon><ellipse class="st11" transform="matrix(0.9307 -0.3657 0.3657 0.9307 -53.1496 148.5898)" cx="365.7" cy="214.6" rx="3.7" ry="6.3"></ellipse><polygon class="st11" points="378.6,180.8 370.4,185.5 361.9,180.8 370.1,176.1 	"></polygon><polygon class="st11" points="380,196.4 388.2,191.7 394,202.7 385.8,207.4 	"></polygon><polygon class="st11" points="394.3,239.3 386.2,244 380,248.7 388.2,244 	"></polygon><path class="st12" d="M388.5,242.1c-0.1,0.2-0.6,2.3-1.1,1.8s-2.7,0.5-2.7,0.5l-6.3-8l0.8-2.6h5.7"></path><path class="st11" d="M358,207.5l-0.6-2.1l-6.6-3.6v-11.3c0-0.2,6.4,3.8,6.4,3.8l0.3-0.6c0.4-1.7,1-3.4,2-4.9l-4.7-8.6l5.9-4.5
		l4.4,8.9l0,0c1.6-0.4,3.3-0.3,4.9,0.1v-8.6l8.5,4.7v8.9c1.7,1.6,3.2,3.3,4.5,5.2l5.1-3.3l5.8,11l-4.6,3.6l0.4,1.9
		c0.6,2,1.1,3.9,1.4,5.9l6.8,3.8v11.3l-6.5-3.9c-0.3,2-1,4-2.1,5.8l4.9,8.3l-6.1,4.7l-4.3-8.5h-5.4v8.5l-8.1-4.9v-8.4
		c-1.9-1.8-3.5-3.9-4.9-6.1l-4.9,3.4l-5.9-11.2l4.9-3.6l-0.5-1.7C358.6,210.1,358.3,208.8,358,207.5z"></path><polyline class="st12" points="342.6,195.2 350.1,190.7 352,193.4 349.1,199.5 	"></polyline><polyline class="st11" points="352.4,232.7 358,230.4 358,227 	"></polyline><polygon class="st11" points="370.3,248.7 378.4,244 376.4,237.8 369,240 	"></polygon><polygon class="st11" points="360.7,175.6 352.5,180.3 357,189.2 361.9,189.3 363,180.3 	"></polygon><ellipse class="st11" transform="matrix(0.9307 -0.3657 0.3657 0.9307 -53.1496 148.5898)" cx="365.7" cy="214.6" rx="3.7" ry="6.3"></ellipse><polygon class="st11" points="380,196.4 388.2,191.7 394,202.7 385.8,207.4 	"></polygon><polygon class="st11" points="394.3,239.3 386.2,244 380,248.7 388.2,244 	"></polygon><path class="st12" d="M358,207.5l-0.6-2.1l-6.6-3.6v-11.3c0-0.2,6.4,3.8,6.4,3.8l0.3-0.6c0.4-1.7,1-3.4,2-4.9l-4.7-8.6l5.9-4.5
		l4.4,8.9l0,0c1.6-0.4,3.3-0.3,4.9,0.1v-8.6l8.5,4.7v8.9c1.7,1.6,3.2,3.3,4.5,5.2l5.1-3.3l5.8,11l-4.6,3.6l0.4,1.9
		c0.6,2,1.1,3.9,1.4,5.9l6.8,3.8v11.3l-6.5-3.9c-0.3,2-1,4-2.1,5.8l4.9,8.3l-6.1,4.7l-4.3-8.5h-5.4v8.5l-8.1-4.9v-8.4
		c-1.9-1.8-3.5-3.9-4.9-6.1l-4.9,3.4l-5.9-11.2l4.9-3.6l-0.5-1.7C358.6,210.1,358.3,208.8,358,207.5z"></path><polyline class="st6" points="352.4,232.7 358,230.4 358,227 	"></polyline><polygon class="st6" points="370.3,248.7 378.4,244 376.4,237.8 369,240 	"></polygon><ellipse class="st6" transform="matrix(0.9307 -0.3657 0.3657 0.9307 -53.1496 148.5898)" cx="365.7" cy="214.6" rx="3.7" ry="6.3"></ellipse><polygon class="st6" points="380,196.4 388.2,191.7 394,202.7 385.8,207.4 	"></polygon><polygon class="st6" points="394.3,239.3 386.2,244 380,248.7 388.2,244 	"></polygon><polyline class="st6" points="352.4,232.7 358,230.4 358,227 	"></polyline><polygon class="st12" points="370.3,248.7 378.4,244 376.4,237.8 369,240 	"></polygon><path class="st11" d="M349.8,212.2l-0.6-2.1l-6.6-3.6v-11.3c0-0.2,6.4,3.8,6.4,3.8l0.3-0.6c0.4-1.7,1-3.4,2-4.9l-4.7-8.6l5.9-4.5
		l4.5,8.9l0,0c1.6-0.4,3.3-0.3,4.9,0.1v-8.6l8.5,4.7v8.9c1.7,1.6,3.2,3.3,4.5,5.2l5.1-3.3l5.8,11l-4.5,3.6l0.4,1.9
		c0.6,2,1.1,4,1.4,6l6.8,3.8v11.3l-6.5-3.9c-0.3,2.1-1,4-2.1,5.8l4.9,8.3l-6.2,4.6l-4.3-8.5h-5.4v8.5l-8.1-4.9v-8.4
		c-1.9-1.8-3.5-3.9-4.9-6.1l-4.9,3.3l-5.9-11.2l4.9-3.6l-0.5-1.7C350.5,214.8,350.1,213.5,349.8,212.2z"></path><ellipse class="st12" transform="matrix(0.9307 -0.3657 0.3657 0.9307 -53.1496 148.5898)" cx="365.7" cy="214.6" rx="3.7" ry="6.3"></ellipse><polygon class="st12" points="394.3,239.3 386.2,244 380,248.7 388.2,244 	"></polygon><polygon class="st11" points="378.6,180.8 370.4,185.5 361.9,180.8 370.1,176.1 	"></polygon><polygon class="st12" points="378.6,180.8 370.4,185.5 361.9,180.8 370,176.1 	"></polygon><polygon class="st11" points="398,217.9 389.9,222.6 389.9,233.9 398,229.1 	"></polygon><polygon class="st12" points="398,217.9 389.9,222.6 389.9,233.9 398,229.1 	"></polygon></g><g id="character"><path class="st13" d="M266.4,176c0,0,2.2-4,2.9-5.2s3.9-5.7,5.3-5.8c2.4-0.1-2,5.7-1,6.3s8.4-5.6,10-6c3.5-1,1.5,2,1.5,2
		s3-0.8,3.5,0.3s-1.8,2.7-1.8,2.7s1.7-0.6,1.8,0.9s-1.8,2.2-1.8,2.2s2.1,0.5,0.8,2.2c-0.6,0.9-14.6,5.6-16,6.4S266.4,176,266.4,176z
		"></path><rect class="st14" x="277" y="169.4" transform="matrix(0.861 -0.5086 0.5086 0.861 -47.1257 166.6404)" width="8.7" height="0.3"></rect><rect class="st14" x="279" y="171.8" transform="matrix(0.9147 -0.4042 0.4042 0.9147 -45.3503 129.0943)" width="8.2" height="0.3"></rect><polygon class="st14" points="280.5,175.8 280.4,175.5 286.8,173.1 286.9,173.4 	"></polygon><path class="st14" d="M220.4,329c-2.4-1.5-5.6,1.1-7.6,0.9s-2.8-11.4-2.8-11.4l-11.8-0.4l-0.7,22.2c1.5,1,3.2,1.9,4.9,2.5
		c0,0-0.8-10.2,1.4-9.9s2.9,8.1,5.5,8.9s10.4-4.2,11.8-5.1S222.8,330.5,220.4,329z"></path><path class="st14" d="M244.8,343.4c-2.3-1.5-5.6,1.1-7.6,0.9s-2.8-11.4-2.8-11.4l-11.8-0.4l-0.7,22.2c1.5,1,3.2,1.8,4.9,2.5
		c0,0-0.8-10.2,1.4-9.9s2.9,8.1,5.5,8.9s10.4-4.2,11.8-5.1S247.2,345,244.8,343.4z"></path><path class="st11" d="M200.5,219.4c0,0-8.8,16.7-7.2,109.9c0,0,9.7,6.7,25.1,3.2c0,0,0.6-108.7-1-112.6S200.5,219.4,200.5,219.4z"></path><path class="st11" d="M229.7,217.4c3.3,21.5,6.6,43.1,8.5,64.8c1.6,18.5,2,37.1,3,55.6c0,0.7,0.1,1.4,0.1,2c0,0-13.4,7.7-28.5,0.6
		c0,0-4.2-90.5-3.8-102.9s1-26.7,7.9-28.7S229.7,217.4,229.7,217.4z"></path><path class="st8" d="M199.7,173.7c0,0-17.7,22.8-13.3,30.6s22.7,1.7,22.7,1.7"></path><path class="st8" d="M266,173.1c0,0-15.7,14-21.9,10.1c-22.2-14-27-14-27-14s-16.6-5.4-19,1.8s0.2,47,2.9,50.2
		c0,0.1,0.1,0.1,0.1,0.1c1.4,0.9,2.8,1.6,4.3,2.2c2.3,0.7,4.7,1.2,7.1,1.5c5.1,0.2,12.5-1.5,16.7-4.5c2.2-5.6,2.8-24.6,2.8-24.6
		s8.9,6.8,19.1,4.1c9-2.4,22.9-16.7,22.9-16.7C273.7,177.8,266,173.1,266,173.1z"></path><path class="st13" d="M226.5,153.6c0,0,0.6,15-2.4,15.2s-8.7-1.3-8.7-4.2s0-9.7,2.7-10.6S225.1,150.9,226.5,153.6z"></path><path class="st14" d="M226.8,155.3c0,0,3.8-5.6-2.6-9.3s-17-2.9-19.6,5.4c-2.4,7.8,0.2,9.2-3.6,11.8s-8.7,5.3-6.8,10.3
		s3.1,3.2,4,5.3s-2.9,5.3-0.6,9s13,6.7,17.1,2.2s1.8-10.8,4.8-12s4.9-4.7,4.3-7.4s-6.2-7.8-4.1-10.7S226.8,155.3,226.8,155.3z"></path><path class="st10" d="M209.7,245.8c0-1.1-1.8-1.2-1.8-0.1c0.7,31.6,2.2,63.1,4.7,94.6c0.1,1.1,1.9,1.2,1.8,0.1
		C211.9,308.9,210.3,277.4,209.7,245.8z"></path></g><g id="plant"><ellipse class="st11" cx="93.6" cy="244" rx="25.9" ry="18.2"></ellipse><ellipse class="st14" cx="93.6" cy="233.2" rx="19.4" ry="7.9"></ellipse><path class="st8" d="M94.9,233.4c1.5-2.1,3-4.4,4.7-6.9c2-3.2,4-6.5,5.7-9.9c1.6-3,3-6.1,4.2-9.4c1.3-3.5,2.3-7.1,3.1-10.7
		c0.2-1,0.4-1.9,0.5-2.9c0.1-0.4,0.1-0.4,0.1-0.3s0-0.3,0.1-0.8c0.2-2,0.3-3.9,0.3-5.9c0.1-6.8-1.2-13.5-3.8-19.8
		c-7,10.2-11.7,21.7-13.8,33.9c-0.1,0.7-0.3,1.4-0.4,2.2c0-0.1-0.2,1.3-0.3,1.9s-0.2,1.7-0.2,1.8c-0.1,0.9-0.2,1.9-0.2,2.8
		c-0.3,3.6-0.4,7.1-0.4,10.7C94.3,224.4,94.6,228.9,94.9,233.4z"></path><path class="st8" d="M95.4,233.7c0.1-2.6,0.2-5.4,0.2-8.3c0-3.8-0.2-7.6-0.5-11.4c-0.2-3.4-0.8-6.8-1.5-10.1
		c-0.8-3.6-1.9-7.2-3.2-10.7c-0.3-0.9-0.7-1.8-1.1-2.7c-0.2-0.4-0.1-0.4-0.1-0.3l-0.4-0.7c-0.9-1.7-1.9-3.5-2.9-5.1
		c-3.6-5.8-8.4-10.7-14-14.6c-0.4,12.3,1.9,24.6,6.7,36c0.3,0.7,0.6,1.4,0.8,2c0,0,0.6,1.2,0.8,1.7s0.8,1.5,0.8,1.6
		c0.4,0.8,0.8,1.7,1.3,2.5c1.7,3.2,3.5,6.2,5.5,9.2C90.1,226.5,92.7,230.1,95.4,233.7z"></path><path class="st8" d="M95.5,235.1c-0.8-1.5-1.6-3-2.6-4.6c-1.2-2.1-2.6-4.1-4-6c-1.2-1.8-2.6-3.4-4.1-5c-1.6-1.7-3.4-3.3-5.2-4.7
		c-0.5-0.4-1-0.7-1.5-1.1c-0.2-0.2-0.2-0.2-0.2-0.1l-0.5-0.3c-1-0.6-2.1-1.3-3.2-1.8c-3.8-2-8-3.1-12.2-3.4
		c3.8,6.8,9,12.7,15.2,17.3l1.1,0.8l1,0.7l1,0.6l1.5,0.9c1.9,1.1,3.9,2.2,5.9,3.2C90.3,232.9,92.9,234,95.5,235.1z"></path></g><g id="pie_chart"><path class="st11" d="M235.7,134.6V82.2c0-2.2-1.2-4.3-3.1-5.5l-33.4-20c-1.9-1.1-4.4-0.5-5.5,1.4c-0.4,0.6-0.6,1.3-0.6,2.1v52.5
		c0,2.5,1.3,4.7,3.5,5.9l34.8,18.7c1.4,0.8,3.2,0.2,4-1.2C235.6,135.6,235.7,135.1,235.7,134.6z"></path><path class="st5" d="M207.3,77c7.2-2.3,15.2,3.6,18.3,13.3c1.4,4.2,1.5,8.8,0.3,13.1c-1.3,4.3-4,7.3-7.6,8.4
		c-1,0.3-2.1,0.5-3.1,0.5c-2.9-0.1-5.7-1.1-7.9-3c-3.4-2.8-6-6.6-7.2-10.9C196.9,88.7,200.1,79.2,207.3,77z"></path><path class="st0" d="M212.8,76.7c0.1,0,0,18.1,0,18.1l-13.3-9C199.5,85.8,202.1,74.8,212.8,76.7z"></path><path class="st8" d="M212.8,94.8l-13.4,1.1c0,0-1.7-5.8,0.2-10.2L212.8,94.8z"></path></g></svg>