<svg width="512" height="512" viewBox="0 0 512 512" fill="none" xmlns="http://www.w3.org/2000/svg">
    <g clip-path="url(#clip0_292_2)">
        <circle cx="256" cy="256" r="256" fill="#3B82F6"/>
        <path fill-rule="evenodd" clip-rule="evenodd" d="M143.403 159.095C112.199 175.698 112.199 202.615 143.403 219.217L199.121 248.861C230.326 265.463 280.919 265.463 312.123 248.861L367.841 219.217C399.046 202.615 399.046 175.697 367.841 159.095L312.123 129.452C280.919 112.849 230.326 112.85 199.121 129.452L143.403 159.095ZM132.005 234.017C135.177 236.729 138.976 239.293 143.403 241.648L199.121 271.292C230.326 287.894 280.919 287.894 312.123 271.292L367.841 241.648C372.269 239.293 376.068 236.729 379.239 234.017C398.417 250.419 394.618 272.261 367.841 286.508L312.123 316.152C280.919 332.754 230.326 332.754 199.121 316.152L143.403 286.508C116.626 272.261 112.827 250.419 132.005 234.017ZM132.005 301.386C135.177 304.098 138.976 306.661 143.403 309.017L199.121 338.661C230.326 355.263 280.919 355.263 312.123 338.661L367.841 309.017C372.269 306.661 376.068 304.098 379.239 301.386C398.417 317.788 394.618 339.63 367.841 353.876L312.123 383.52C280.919 400.122 230.326 400.122 199.121 383.52L143.403 353.876C116.626 339.63 112.827 317.788 132.005 301.386Z" fill="white"/>
    </g>
    <defs>
        <clipPath id="clip0_292_2">
            <rect width="512" height="512" fill="white"/>
        </clipPath>
    </defs>
</svg>
